<svg width="15" height="16" viewBox="0 0 15 16" fill="none" xmlns="http://www.w3.org/2000/svg">
<path d="M8.28865 9.5925L9.83896 11.1453C9.60214 11.5976 9.57773 12.0476 9.82675 12.297L12.6564 15.1311C13.0128 15.4881 13.7892 15.2924 14.3849 14.6933C14.9831 14.0943 15.1784 13.3191 14.8219 12.9621L11.9947 10.128C11.7433 9.8786 11.2941 9.90305 10.8424 10.1378L9.29208 8.58749L8.28865 9.5925ZM5.31255 0.285767C2.37795 0.285767 0 2.66747 0 5.60669C0 8.54592 2.37795 10.9276 5.31255 10.9276C8.24715 10.9276 10.6251 8.54592 10.6251 5.60669C10.6251 2.66747 8.24715 0.285767 5.31255 0.285767ZM5.31255 9.67564C3.06888 9.67564 1.25001 7.85391 1.25001 5.60669C1.25001 3.35948 3.06888 1.53775 5.31255 1.53775C7.55622 1.53775 9.37509 3.35948 9.37509 5.60669C9.37509 7.85391 7.55622 9.67564 5.31255 9.67564Z" fill="#38547B"/>
</svg>
